Hanif_Shallow_5_0_grf.mot
version=1
nRows=42
nColumns=19
inDegrees=yes
endheader
time	right_ground_force_vx	right_ground_force_vy	right_ground_force_vz	right_ground_force_px	right_ground_force_py	right_ground_force_pz	right_ground_torque_x	right_ground_torque_y	right_ground_torque_z	left_ground_force_vx	left_ground_force_vy	left_ground_force_vz	left_ground_force_px	left_ground_force_py	left_ground_force_pz	left_ground_torque_x	left_ground_torque_y	left_ground_torque_z
5.450000	1.283180	299.272000	58.071900	0.174601	0.000000	-1.446230	-17.864400	7.232480	-6.498880	3.707830	323.292000	-64.554900	0.191097	0.000000	-0.971658	22.104300	-8.862490	-1.274050
5.455000	1.177400	299.857000	58.644600	0.173806	0.000000	-1.446980	-17.675900	7.232990	-6.753950	3.419490	324.039000	-64.484700	0.191097	0.000000	-0.971205	22.016300	-8.840450	-1.286310
5.460000	1.826580	301.810000	58.592100	0.174812	0.000000	-1.446230	-18.003600	7.324360	-6.487750	3.189760	323.099000	-64.498700	0.190404	0.000000	-0.971312	21.992500	-8.844120	-1.501990
5.465000	1.420830	303.933000	58.594000	0.174824	0.000000	-1.446570	-18.036700	7.250480	-6.554680	3.107790	324.472000	-63.729400	0.190028	0.000000	-0.970341	21.772600	-8.941470	-1.645290
5.470000	1.549860	303.498000	58.695300	0.174891	0.000000	-1.446880	-17.914600	7.235590	-6.523820	2.787370	323.425000	-63.749100	0.189855	0.000000	-0.969968	21.589800	-8.862890	-1.698490
5.475000	1.637500	304.908000	58.407500	0.174631	0.000000	-1.447050	-17.944300	7.202860	-6.657740	2.949640	323.385000	-62.941800	0.189689	0.000000	-0.970408	21.724700	-8.943520	-1.758620
5.480000	1.903530	305.164000	58.370000	0.174315	0.000000	-1.447280	-17.882900	7.213240	-6.766450	3.208860	321.247000	-62.691600	0.189546	0.000000	-0.970017	21.448500	-8.917060	-1.788120
5.485000	2.336020	304.505000	58.224600	0.173754	0.000000	-1.446950	-17.937300	7.232770	-6.927590	2.781900	320.654000	-62.378800	0.189108	0.000000	-0.970305	21.511000	-9.024290	-1.905660
5.490000	2.781230	303.008000	58.165500	0.173631	0.000000	-1.447650	-17.630400	7.282080	-6.917630	2.801950	320.089000	-62.096400	0.188871	0.000000	-0.970126	21.415600	-8.939410	-1.998540
5.495000	3.191200	302.756000	58.188800	0.173550	0.000000	-1.448430	-17.370000	7.405610	-6.915620	2.942940	319.771000	-62.505000	0.188686	0.000000	-0.970310	21.449400	-8.983880	-2.038710
5.500000	2.809390	301.301000	58.551300	0.172790	0.000000	-1.448410	-17.299600	7.281140	-7.124540	3.464540	320.157000	-62.208000	0.188834	0.000000	-0.970179	21.420800	-8.977280	-2.010750
5.505000	2.465720	301.236000	57.705000	0.172455	0.000000	-1.448620	-17.239500	7.192270	-7.251290	3.275610	319.407000	-61.859500	0.188207	0.000000	-0.970221	21.388200	-9.010210	-2.205660
5.510000	3.049200	300.728000	57.551300	0.171979	0.000000	-1.448590	-17.209300	7.222520	-7.386480	3.950160	321.171000	-62.385000	0.187940	0.000000	-0.968682	20.997200	-8.984920	-2.324450
5.515000	2.508190	299.841000	56.995000	0.171487	0.000000	-1.448030	-17.335100	7.241170	-7.509410	4.124420	319.278000	-62.172900	0.188277	0.000000	-0.969724	21.200200	-9.005920	-2.184810
5.520000	2.949720	301.078000	56.981600	0.172037	0.000000	-1.448400	-17.287000	7.260890	-7.378630	4.212680	314.736000	-61.850400	0.187125	0.000000	-0.970325	21.082800	-9.049870	-2.486100
5.525000	2.420570	300.679000	56.573100	0.172064	0.000000	-1.449090	-17.066000	7.213650	-7.365720	4.640820	316.394000	-61.745900	0.186821	0.000000	-0.969612	20.958800	-9.091220	-2.614820
5.530000	2.303140	299.849000	56.483100	0.171753	0.000000	-1.448620	-17.164400	7.196030	-7.439760	4.515090	316.656000	-61.257000	0.187339	0.000000	-0.969826	21.046400	-9.104020	-2.456380
5.535000	2.286800	300.916000	56.321500	0.171457	0.000000	-1.448630	-17.221400	7.140130	-7.578220	5.017890	314.860000	-60.730100	0.187213	0.000000	-0.969322	20.754700	-9.092340	-2.486290
5.540000	2.410330	299.107000	56.260200	0.171425	0.000000	-1.447860	-17.345100	7.162840	-7.528600	5.049010	314.344000	-60.415000	0.187001	0.000000	-0.970156	20.981800	-9.111990	-2.550950
5.545000	2.041630	300.187000	55.994200	0.171859	0.000000	-1.449530	-16.915700	7.156430	-7.428020	5.000760	314.464000	-60.334100	0.187114	0.000000	-0.969887	20.905300	-9.173040	-2.505600
5.550000	1.996000	299.315000	56.293000	0.171501	0.000000	-1.448990	-17.026400	7.128070	-7.512760	4.933900	314.949000	-60.558600	0.187045	0.000000	-0.969795	20.912500	-9.069600	-2.550510
5.555000	2.201830	300.250000	55.956300	0.171203	0.000000	-1.449290	-16.988200	7.071920	-7.651820	5.161360	315.857000	-59.726200	0.187703	0.000000	-0.970225	21.102400	-9.090820	-2.369600
5.560000	2.306350	300.756000	55.819000	0.171285	0.000000	-1.448920	-17.125800	7.125440	-7.635820	4.750990	316.448000	-60.172200	0.187739	0.000000	-0.969804	21.020800	-8.983410	-2.372270
5.565000	2.317830	296.587000	55.573500	0.171813	0.000000	-1.448380	-17.046100	7.098240	-7.348460	4.333830	315.284000	-60.232100	0.187862	0.000000	-0.970223	21.084700	-9.004170	-2.302130
5.570000	1.934570	299.248000	55.507700	0.172209	0.000000	-1.448910	-17.050600	6.938960	-7.335770	4.365170	315.418000	-60.269000	0.188721	0.000000	-0.970285	21.113300	-8.890000	-2.044910
5.575000	1.700550	300.486000	54.850300	0.172952	0.000000	-1.450200	-16.736700	6.889540	-7.157940	4.109500	315.353000	-60.382300	0.188703	0.000000	-0.970211	21.092000	-8.881680	-2.045510
5.580000	1.563750	295.866000	54.740400	0.172493	0.000000	-1.448660	-16.937000	6.949130	-7.147930	3.848990	316.007000	-60.266100	0.188598	0.000000	-0.971009	21.394200	-8.925880	-2.081920
5.585000	1.274780	297.017000	54.217300	0.173017	0.000000	-1.449700	-16.697800	6.919760	-7.031320	3.667440	314.861000	-59.756100	0.189000	0.000000	-0.970932	21.296200	-8.892260	-1.947870
5.590000	1.236800	295.609000	53.786200	0.173042	0.000000	-1.449610	-16.647900	6.736610	-7.019770	3.576250	314.565000	-60.186400	0.189441	0.000000	-0.970753	21.222800	-8.798560	-1.805980
5.595000	0.839505	295.866000	53.725600	0.173444	0.000000	-1.449160	-16.801100	6.835200	-6.883670	3.002520	314.167000	-59.729600	0.189501	0.000000	-0.970504	21.132400	-8.707730	-1.800560
5.600000	0.501689	294.993000	53.596600	0.172899	0.000000	-1.449520	-16.652800	6.776330	-7.032510	2.986280	312.516000	-59.112600	0.189963	0.000000	-0.970159	20.912200	-8.756040	-1.630570
5.605000	0.161030	294.538000	53.634600	0.172761	0.000000	-1.449260	-16.710200	6.790680	-7.054120	2.623240	311.484000	-58.756500	0.190349	0.000000	-0.971194	21.174600	-8.689710	-1.507570
5.610000	0.381349	294.639000	53.121000	0.173203	0.000000	-1.450020	-16.486100	6.606410	-6.964930	2.769350	310.303000	-57.961800	0.190432	0.000000	-0.971187	21.087400	-8.733550	-1.476610
5.615000	0.407606	292.905000	53.369900	0.173907	0.000000	-1.449560	-16.525400	6.616270	-6.695270	2.024210	308.300000	-57.372600	0.190943	0.000000	-0.970876	20.874800	-8.477900	-1.336880
5.620000	0.815719	291.381000	53.408900	0.173901	0.000000	-1.448710	-16.677500	6.539040	-6.670290	2.475610	306.651000	-57.211300	0.190284	0.000000	-0.971609	20.975400	-8.619120	-1.506710
5.625000	0.725766	290.769000	53.302100	0.173159	0.000000	-1.449290	-16.477000	6.699670	-6.846300	2.026770	308.256000	-57.285100	0.191521	0.000000	-0.971649	21.110400	-8.393540	-1.170130
5.630000	0.395456	289.328000	53.546600	0.173715	0.000000	-1.449270	-16.407200	6.538730	-6.659400	1.984680	306.625000	-56.542200	0.192054	0.000000	-0.972599	21.289700	-8.484810	-0.980048
5.635000	0.398459	291.633000	53.397700	0.174789	0.000000	-1.448760	-16.685500	6.613420	-6.392000	1.356080	307.554000	-57.114600	0.192695	0.000000	-0.972059	21.204400	-8.428140	-0.776510
5.640000	0.444071	290.524000	53.512900	0.174038	0.000000	-1.449330	-16.456500	6.563670	-6.594030	1.160670	307.531000	-56.438800	0.193039	0.000000	-0.971137	20.924300	-8.375250	-0.690189
5.645000	-0.078512	288.389000	53.068300	0.174850	0.000000	-1.449050	-16.424700	6.509900	-6.299970	1.468330	308.583000	-56.165900	0.193437	0.000000	-0.971886	21.219800	-8.311740	-0.597940
5.650000	-0.561763	290.398000	52.403100	0.174916	0.000000	-1.449540	-16.405900	6.514570	-6.340100	0.670403	305.991000	-56.325700	0.192703	0.000000	-0.971860	21.053700	-8.200250	-0.807518
5.655000	-0.905857	288.938000	51.926600	0.174914	0.000000	-1.449940	-16.212900	6.432550	-6.317370	0.428586	302.797000	-55.675700	0.193624	0.000000	-0.973072	21.206600	-8.132210	-0.506055
